<?xml version="1.0" encoding="utf-8"?>
<!-- Generator: Adobe Illustrator 21.1.0, SVG Export Plug-In . SVG Version: 6.00 Build 0)  -->
<svg version="1.1" id="Layer_1" xmlns="http://www.w3.org/2000/svg" xmlns:xlink="http://www.w3.org/1999/xlink" x="0px" y="0px"
	 viewBox="0 0 376.4 359" style="enable-background:new 0 0 376.4 359;" xml:space="preserve">
<style type="text/css">
	.st0{fill:#FFFFFF;}
</style>
<path class="st0" d="M222.8,278.2c0,0-0.4,0-0.4,0.4c-4.3,1.9-28,13.2-31.5,41.2c-3.1,23.7,10.9,39.2,10.9,39.2
	s-45.1-11.7-58.7-52.5c-3.1-9.3-3.9-18.6-3.5-27.6v-0.4c1.9-28.8,20.2-52.5,28.4-62.2c-1.6,2.3-16.7,26.8-9.7,52.5
	c7.4,26.8,22.5,32.6,22.5,32.6s5.4-8.5,15.9-15.2c8.9-5.8,21.4-7.8,24.9-8.2C222.4,278.2,222.8,278.2,222.8,278.2"/>
<path class="st0" d="M220.1,80L220.1,80c-1.9,28.8-20.2,52.5-28.4,62.6c1.6-2.3,16.7-26.8,9.7-52.5c-7.4-26.8-22.9-32.6-22.9-32.6
	s-5.4,8.5-15.9,15.2c-8.9,5.8-21.4,7.8-24.5,8.2c-0.4,0-0.8,0-0.8,0s0.4,0,0.8-0.4c4.3-1.9,28-13.6,31.1-41.2
	C172.3,15.5,158.3,0,158.3,0s45.1,11.7,58.7,52.1C220.1,61.8,220.9,71.1,220.1,80"/>
<path class="st0" d="M322.7,291.4c0,0-40,23.7-78.5,4.3c-8.9-4.7-15.9-10.5-21.8-17.1c0,0,0,0,0-0.4c-19-21.8-22.9-51.7-24.1-64.5
	c0,0,6.2,30.3,30.3,43.9c24.1,13.6,39.2,7,39.2,7s-2.3-9.7,0.4-22.1c2.3-10.5,9.7-20.6,11.7-23.3c0-0.4,0.4-0.4,0.4-0.4
	s0,0.4-0.4,0.8c-1.6,4.3-10.1,29.1,7,51.3C301.7,289.8,322.7,291.4,322.7,291.4"/>
<path class="st0" d="M162.2,145.7c0,0-6.2-30.3-30.3-43.9s-39.2-7-39.2-7s2.3,10.1-0.4,22.1c-2.3,10.5-9.7,20.6-11.7,23.3
	c0,0.4-0.4,0.4-0.4,0.4v-0.4c1.6-4.3,10.1-29.1-7-51.3c-14.8-19-35.7-20.2-35.7-20.2s40-23.3,78.5-4.3c8.9,4.7,15.9,10.5,21.8,17.1
	c0,0,0,0,0,0.4C156.8,103,161.1,132.9,162.2,145.7"/>
<path class="st0" d="M359.6,157.7c0,0-11.7,45.1-52.5,58.7c-9.3,3.1-18.6,3.9-27.6,3.5c0,0,0,0-0.4,0c-28.8-1.9-52.5-20.2-62.6-28.4
	c2.3,1.6,26.8,16.7,52.5,9.7c26.8-7.4,32.6-22.9,32.6-22.9s-8.5-5.4-15.2-15.9c-5.8-8.9-7.8-21.4-8.2-24.5c0-0.4,0-0.8,0-0.8
	s0,0.4,0.4,0.8c1.9,4.3,13.6,28,41.2,31.1C344.1,171.7,359.6,157.7,359.6,157.7"/>
<path class="st0" d="M143.2,168.2c-2.3-1.6-26.8-16.7-52.5-9.7c-26.8,7.4-32.6,22.5-32.6,22.5s8.5,5.4,15.2,15.9
	c5.8,8.9,7.8,21.4,8.2,24.5c0,0.4,0,0.4,0,0.8c0,0,0-0.4-0.4-0.4c-1.9-4.3-13.6-28-41.2-31.1c-23.7-3.1-39.2,10.9-39.2,10.9
	s11.7-45.1,52.1-58.7c9.3-3.1,18.6-3.9,27.6-3.5c0,0,0,0,0.4,0C109.4,141.8,133.1,160.1,143.2,168.2"/>
<path class="st0" d="M295.9,115.8c-4.3,8.9-10.5,15.9-17.1,21.8c0,0,0,0-0.4,0c-21.4,19-51.3,22.9-64.1,24.1c0,0,30.3-6.2,43.9-30.3
	c13.6-24.1,7-39.2,7-39.2s-9.7,2.3-22.1-0.4c-10.5-2.3-20.6-9.7-23.3-11.7c-0.4,0-0.4-0.4-0.4-0.4h0.4c4.3,1.6,29.1,10.1,51.3-7
	c19-14.8,20.2-35.7,20.2-35.7S315.3,77.3,295.9,115.8"/>
<path class="st0" d="M140.1,279.4c0.4,0.4,0.4,0.4,0.4,0.4S140.5,279.7,140.1,279.4c-4.7-1.6-29.1-9.7-51.3,7.4
	c-19,14.8-20.2,35.7-20.2,35.7s-23.3-40-4.3-78.5c4.3-8.9,10.5-16.3,17.1-21.8c0,0,0,0,0.4,0c21.8-18.6,51.7-22.9,64.5-24.1
	c0,0-30.3,6.2-43.9,30.3s-7,39.2-7,39.2s9.7-2.3,22.1,0.4C127.3,269.6,137.4,277.4,140.1,279.4"/>
</svg>
